<svg width="512" height="462" viewBox="0 0 512 462" fill="none" xmlns="http://www.w3.org/2000/svg">
<path d="M435.598 313.704V431.371H338.902V313.704H372.055H402.446H435.598Z" fill="#EAB932"/>
<path d="M237.744 189.071V350.402H118.866H0V400.3C32.8534 367.446 86.0129 367.446 118.866 400.3C151.72 367.446 204.891 367.446 237.744 400.3V431.371H278.904V276.808H301.424V189.071H237.744Z" fill="#FFD039"/>
<path d="M301.424 196.772H237.744V223.439H301.424V196.772Z" fill="#EAB932"/>
<path d="M483.55 147.259C485.95 149.647 487.43 152.956 487.43 156.614C487.43 163.919 481.5 169.848 474.195 169.848H428.573C424.915 169.848 421.607 168.369 419.218 165.969C416.818 163.581 415.339 160.272 415.339 156.614C415.339 149.309 421.257 143.379 428.573 143.379H378.653C374.994 143.379 371.686 141.9 369.298 139.5C366.898 137.112 365.418 133.803 365.418 130.145C365.418 122.84 371.348 116.91 378.653 116.91H455.042C458.689 116.91 461.998 118.39 464.398 120.79C466.797 123.178 468.277 126.487 468.277 130.145C468.277 137.449 462.347 143.379 455.042 143.379H474.195C477.842 143.379 481.15 144.859 483.55 147.259Z" fill="#3B9DFF"/>
<path d="M186.064 78.9075C189.315 82.1463 191.318 86.6199 191.318 91.5712C191.318 101.462 183.292 109.489 173.401 109.489H70.0173C65.0776 109.489 60.5923 107.485 57.3536 104.235C54.1149 100.996 52.111 96.5225 52.111 91.5712C52.111 81.6803 60.1263 73.665 70.0173 73.665H44.0957C39.1444 73.665 34.6708 71.6612 31.4321 68.4224C28.1817 65.1837 26.1778 60.71 26.1778 55.7587C26.1778 45.8561 34.2048 37.8408 44.0957 37.8408H105.841C110.793 37.8408 115.266 39.8446 118.505 43.0834C121.756 46.3338 123.759 50.8074 123.759 55.7587C123.759 65.6497 115.732 73.665 105.841 73.665H173.401C178.34 73.665 182.826 75.6688 186.064 78.9075Z" fill="#3B9DFF"/>
<path d="M269.584 0.315735L288.387 62.6556L267.65 73.7349L250.781 62.6556L269.584 0.315735Z" fill="#CCCCCC"/>
<path d="M288.387 62.6556V93.9246L269.398 101.695L250.781 93.9246V62.6556H288.387Z" fill="#FFD039"/>
<path d="M288.387 93.9246L304.406 121.862L268.815 129.656L234.762 121.862L250.781 93.9246H288.387Z" fill="#CCCCCC"/>
<path d="M309.847 127.302V191.331C309.847 194.336 307.411 196.772 304.406 196.772H301.424H237.744H234.762C231.757 196.772 229.321 194.336 229.321 191.331V127.302C229.321 124.298 231.757 121.862 234.762 121.862H304.406C307.411 121.862 309.847 124.298 309.847 127.302Z" fill="#FFD039"/>
<path d="M495.597 276.808V431.371H428.026V313.704V276.808H450.546H473.065H495.597Z" fill="#FFD039"/>
<path d="M301.424 217.975V276.808L295.028 424.404L278.904 431.371H265.507V217.975H301.424Z" fill="#EAB932"/>
<path d="M346.475 313.704V431.371H278.904V276.808H301.424H323.944H346.475V313.704Z" fill="#FFD039"/>
<path d="M124.696 442.826H113.046V339.14C113.046 335.923 115.654 333.315 118.871 333.315C122.088 333.315 124.696 335.923 124.696 339.14V442.826Z" fill="#EAB932"/>
<path d="M284.147 285.549C281.252 285.549 278.904 283.202 278.904 280.307V243.026C278.904 240.131 281.252 237.784 284.147 237.784C287.042 237.784 289.389 240.131 289.389 243.026V280.307C289.389 283.203 287.042 285.549 284.147 285.549Z" fill="#FFD039"/>
<path d="M341.232 285.549C338.337 285.549 335.99 283.202 335.99 280.307V243.026C335.99 240.131 338.337 237.784 341.232 237.784C344.127 237.784 346.475 240.131 346.475 243.026V280.307C346.475 283.203 344.127 285.549 341.232 285.549Z" fill="#FFD039"/>
<path d="M301.425 337.31C298.53 337.31 296.182 334.962 296.182 332.067V303.608C296.182 300.713 298.53 298.366 301.425 298.366C304.32 298.366 306.668 300.713 306.668 303.608V332.067C306.668 334.962 304.32 337.31 301.425 337.31Z" fill="#666666"/>
<path d="M323.948 337.31C321.053 337.31 318.706 334.962 318.706 332.067V303.608C318.706 300.713 321.053 298.366 323.948 298.366C326.843 298.366 329.191 300.713 329.191 303.608V332.067C329.191 334.962 326.843 337.31 323.948 337.31Z" fill="#666666"/>
<path d="M301.425 403.216C298.53 403.216 296.182 400.868 296.182 397.973V369.513C296.182 366.618 298.53 364.271 301.425 364.271C304.32 364.271 306.668 366.618 306.668 369.513V397.973C306.668 400.869 304.32 403.216 301.425 403.216Z" fill="#666666"/>
<path d="M323.948 403.216C321.053 403.216 318.706 400.868 318.706 397.973V369.513C318.706 366.618 321.053 364.271 323.948 364.271C326.843 364.271 329.191 366.618 329.191 369.513V397.973C329.191 400.869 326.843 403.216 323.948 403.216Z" fill="#666666"/>
<path d="M322.204 285.549C319.309 285.549 316.962 283.202 316.962 280.307V258.172C316.962 255.277 319.309 252.929 322.204 252.929C325.099 252.929 327.447 255.277 327.447 258.172V280.307C327.447 283.203 325.099 285.549 322.204 285.549Z" fill="#FFD039"/>
<path d="M303.175 285.549C300.28 285.549 297.932 283.202 297.932 280.307V258.172C297.932 255.277 300.28 252.929 303.175 252.929C306.07 252.929 308.417 255.277 308.417 258.172V280.307C308.417 283.203 306.071 285.549 303.175 285.549Z" fill="#FFD039"/>
<path d="M433.268 285.549C430.373 285.549 428.026 283.202 428.026 280.307V243.026C428.026 240.131 430.373 237.784 433.268 237.784C436.163 237.784 438.511 240.131 438.511 243.026V280.307C438.511 283.203 436.163 285.549 433.268 285.549Z" fill="#FFD039"/>
<path d="M490.354 285.549C487.459 285.549 485.111 283.202 485.111 280.307V243.026C485.111 240.131 487.459 237.784 490.354 237.784C493.249 237.784 495.597 240.131 495.597 243.026V280.307C495.597 283.203 493.249 285.549 490.354 285.549Z" fill="#FFD039"/>
<path d="M471.326 285.549C468.431 285.549 466.083 283.202 466.083 280.307V258.172C466.083 255.277 468.431 252.929 471.326 252.929C474.221 252.929 476.568 255.277 476.568 258.172V280.307C476.568 283.203 474.221 285.549 471.326 285.549Z" fill="#FFD039"/>
<path d="M452.297 285.549C449.402 285.549 447.054 283.202 447.054 280.307V258.172C447.054 255.277 449.402 252.929 452.297 252.929C455.192 252.929 457.539 255.277 457.539 258.172V280.307C457.539 283.203 455.193 285.549 452.297 285.549Z" fill="#FFD039"/>
<path d="M450.547 337.31C447.652 337.31 445.304 334.962 445.304 332.067V303.608C445.304 300.713 447.652 298.366 450.547 298.366C453.442 298.366 455.789 300.713 455.789 303.608V332.067C455.789 334.962 453.442 337.31 450.547 337.31Z" fill="#666666"/>
<path d="M473.07 337.31C470.175 337.31 467.827 334.962 467.827 332.067V303.608C467.827 300.713 470.175 298.366 473.07 298.366C475.965 298.366 478.312 300.713 478.312 303.608V332.067C478.312 334.962 475.965 337.31 473.07 337.31Z" fill="#666666"/>
<path d="M450.547 403.216C447.652 403.216 445.304 400.868 445.304 397.973V369.513C445.304 366.618 447.652 364.271 450.547 364.271C453.442 364.271 455.789 366.618 455.789 369.513V397.973C455.789 400.869 453.442 403.216 450.547 403.216Z" fill="#666666"/>
<path d="M473.07 403.216C470.175 403.216 467.827 400.868 467.827 397.973V369.513C467.827 366.618 470.175 364.271 473.07 364.271C475.965 364.271 478.312 366.618 478.312 369.513V397.973C478.312 400.869 475.965 403.216 473.07 403.216Z" fill="#666666"/>
<path d="M374.432 321.863C371.537 321.863 369.189 319.515 369.189 316.62V296.427C369.189 293.532 371.537 291.185 374.432 291.185C377.327 291.185 379.674 293.532 379.674 296.427V316.62C379.674 319.517 377.328 321.863 374.432 321.863Z" fill="#EAB932"/>
<path d="M400.062 321.863C397.167 321.863 394.819 319.515 394.819 316.62V296.427C394.819 293.532 397.167 291.185 400.062 291.185C402.957 291.185 405.305 293.532 405.305 296.427V316.62C405.305 319.517 402.958 321.863 400.062 321.863Z" fill="#EAB932"/>
<path d="M374.432 405.161C371.537 405.161 369.189 402.814 369.189 399.919V345.551C369.189 342.656 371.537 340.309 374.432 340.309C377.327 340.309 379.674 342.656 379.674 345.551V399.919C379.674 402.815 377.328 405.161 374.432 405.161Z" fill="#666666"/>
<path d="M400.062 405.161C397.167 405.161 394.819 402.814 394.819 399.919V345.551C394.819 342.656 397.167 340.309 400.062 340.309C402.957 340.309 405.305 342.656 405.305 345.551V399.919C405.305 402.815 402.958 405.161 400.062 405.161Z" fill="#666666"/>
<path d="M269.584 184.19C283.321 184.19 294.457 173.054 294.457 159.317C294.457 145.58 283.321 134.444 269.584 134.444C255.847 134.444 244.711 145.58 244.711 159.317C244.711 173.054 255.847 184.19 269.584 184.19Z" fill="#808080"/>
<path d="M512 428.481H213.267V461.684H512V428.481Z" fill="#CCCCCC"/>
<path d="M512 447.122H213.267V461.684H512V447.122Z" fill="#B3B3B3"/>
<path d="M213.267 428.481V461.684H0V434.306C23.6964 434.306 23.6964 422.656 47.3927 422.656C71.1008 422.656 71.1008 434.306 94.7971 434.306C118.493 434.306 118.493 422.656 142.178 422.656C165.875 422.656 165.875 434.306 189.571 434.306C201.419 434.306 207.349 431.394 213.267 428.481Z" fill="#3B9DFF"/>
<path d="M213.267 447.122H0V461.684H213.267V447.122Z" fill="#1E79C4"/>
</svg>
