<?xml version="1.0" encoding="UTF-8"?>
<!DOCTYPE svg PUBLIC "-//W3C//DTD SVG 1.1//EN" "http://www.w3.org/Graphics/SVG/1.1/DTD/svg11.dtd">
<!-- Creator: CorelDRAW X8 -->
<svg xmlns="http://www.w3.org/2000/svg" xml:space="preserve" width="147.626mm" height="129.458mm" version="1.1" style="shape-rendering:geometricPrecision; text-rendering:geometricPrecision; image-rendering:optimizeQuality; fill-rule:evenodd; clip-rule:evenodd"
viewBox="0 0 11395 9993"
 xmlns:xlink="http://www.w3.org/1999/xlink">
 <defs>
  <style type="text/css">
   <![CDATA[
    .fil1 {fill:#14395B}
    .fil9 {fill:#355389}
    .fil4 {fill:#3D8F7C}
    .fil0 {fill:#456EB5}
    .fil2 {fill:#51BDA5}
    .fil6 {fill:#89B2F4}
    .fil12 {fill:#97D7C6}
    .fil10 {fill:#9CC2F6}
    .fil3 {fill:#B95641}
    .fil15 {fill:#C6785A}
    .fil13 {fill:#E4EBFB}
    .fil7 {fill:#EC7658}
    .fil8 {fill:#F4A494}
    .fil11 {fill:#F5CD82}
    .fil14 {fill:#F68B7B}
    .fil16 {fill:#F8E8C7}
    .fil5 {fill:#F9E1B3}
   ]]>
  </style>
 </defs>
 <g id="Capa_x0020_1">
  <metadata id="CorelCorpID_0Corel-Layer"/>
  <g id="_820685072">
   <path class="fil0" d="M6248 5929c-137,25 -239,64 -363,105 -138,45 -258,68 -377,119l-45 0 -13 -215 -971 -9c-24,26 -14,-15 -55,77 0,543 26,960 327,1217 137,43 1081,29 1252,-1l953 -467 0 -26c31,-59 -38,-2 95,-71 102,-53 95,-68 221,-84 29,207 59,446 97,631 41,192 145,468 78,636 112,89 -12,-54 80,193 15,40 13,32 29,55l435 -6c84,-40 57,-137 55,-268 -1,-109 0,-219 0,-328 0,-209 14,-441 -16,-637 -42,-279 -11,-579 -109,-872 -38,-113 -40,-148 -148,-181 -526,-84 -1038,54 -1525,132z"/>
   <path class="fil1" d="M4288 4788l118 1c-2,-294 13,-897 184,-1088 50,-179 194,-233 408,-221l84 -524c-75,-58 -105,-117 -176,-170 -87,-64 -119,-63 -90,-218 180,-91 140,27 280,-182 58,-87 107,-204 172,-272 310,11 276,178 345,286 45,71 95,78 101,104l-124 351c-67,149 -133,86 -157,275 -70,565 -4,447 109,711 76,73 1,24 80,44 137,-212 130,-537 171,-856 41,-310 -2,-657 -142,-853 -161,-226 -465,-253 -712,-110 -236,137 -282,390 -406,629 -206,401 -521,492 -829,723 -109,82 -177,151 -243,275 -211,398 124,795 429,979 122,73 214,125 398,116z"/>
   <path class="fil2" d="M2287 7651c152,147 106,83 238,317 77,136 113,221 173,373 108,277 190,533 283,809l490 -2c-127,-91 -240,-95 -248,-328 -6,-193 112,-252 238,-323 -228,-14 -340,-17 -399,-215 -65,-220 74,-310 143,-417 -158,-3 -493,40 -593,-63 -102,-105 -95,-407 -3,-496 131,-125 940,-49 1189,-72 20,-214 510,-999 -82,-999 -95,142 -72,158 -163,190 0,-255 -33,-669 -179,-856 -67,-85 -114,-97 -257,-97 -85,127 -118,233 -152,420 -28,153 -66,383 -66,533 -67,-77 -137,-201 -267,-186 -122,15 -174,132 -184,277 -5,68 24,328 40,403 26,126 74,257 84,378 -376,0 -171,232 -285,354z"/>
   <path class="fil3" d="M5735 9107c-28,69 11,34 -110,44l-2154 -3 -490 2c-99,27 -157,61 -216,105 -101,184 -98,255 -79,511l107 227 4828 0c133,-5 216,-10 234,-17 -225,-68 -1989,-23 -2369,-23 -358,0 -818,11 -685,-456 91,-319 569,-268 930,-241 32,51 27,109 27,167 174,-88 53,-72 220,-1 -3,-136 -35,-121 53,-170l1672 -3c-45,-81 -42,-62 -120,-100l-82 -6 -1007 -5 -273 26 -245 -20 -17 -445 -331 -6c62,24 77,7 136,47 -1,64 1,129 0,192 -1,37 -2,69 -8,106 -12,71 -7,41 -21,69z"/>
   <path class="fil4" d="M176 6943c50,110 1248,1175 1448,1384 158,164 383,328 496,502l191 66c108,62 419,239 454,360 59,-44 117,-78 216,-105 -93,-276 -175,-532 -283,-809 -60,-152 -96,-237 -173,-373 -132,-234 -86,-170 -238,-317 -53,-71 -131,-105 -220,-74 -137,48 -33,99 -148,183 -40,-172 -141,-368 -234,-502 -275,-397 -673,-280 -447,148 -98,-27 -776,-711 -1033,-518 -54,40 -28,3 -29,55z"/>
   <path class="fil5" d="M666 3784c97,52 954,215 1172,244 152,21 275,56 435,56l248 -846c49,-216 -52,-35 -58,-271 -261,-6 -559,-130 -844,-136 -3,-171 -54,-161 -197,-184 -126,-21 -240,-52 -347,-61 -16,24 -11,28 -31,51 -38,41 -18,25 -62,47 -77,38 -45,-11 -141,77 -164,150 -103,364 -140,650 -14,109 -35,283 -35,373z"/>
   <path class="fil5" d="M7855 9976c-113,-263 -122,-327 -80,-580 2,-8 3,-16 4,-23l19 -61 -95 -63 -1672 3c-88,49 -56,34 -53,170 -167,-71 -46,-87 -220,1 0,-58 5,-116 -27,-167 -361,-27 -839,-78 -930,241 -133,467 327,456 685,456 380,0 2144,-45 2369,23z"/>
   <path class="fil6" d="M2478 1007c-108,-472 513,-544 612,-185 121,443 -528,550 -612,185zm-369 -354c0,37 288,953 382,953 82,0 340,-110 427,-144 153,-60 296,-102 444,-156 1054,-386 906,-189 687,-850 -185,-563 -97,-521 -657,-318 -214,78 -1283,424 -1283,515z"/>
   <path class="fil7" d="M3798 7234c-249,23 -1058,-53 -1189,72 -92,89 -99,391 3,496 100,103 435,60 593,63l729 -3c91,-1 161,-9 229,38l1568 -22c210,-23 604,-9 871,-9 -12,-52 21,-2 -18,-62 -36,-54 -1,-8 -36,-30 -345,-28 -1400,-11 -1852,-7 -210,2 -426,9 -417,-227 12,-301 582,-207 1044,-208 252,0 1071,40 1252,-30 30,-28 14,-11 27,-63 -172,0 -466,42 -599,-20 -171,30 -1115,44 -1252,1 -114,52 -781,32 -953,11z"/>
   <path class="fil0" d="M830 8669c-42,34 -77,79 -80,155 -5,97 41,130 80,188 -144,-12 -521,-62 -678,2 -141,57 -126,104 -139,134 160,-23 2266,582 2673,618 -19,-256 -22,-327 79,-511 -35,-121 -346,-298 -454,-360l-191 -66c-79,1 -183,-13 -229,47 -57,76 -13,23 -35,131l-19 68c-188,-115 -740,-559 -1007,-406z"/>
   <path class="fil2" d="M830 8669c267,-153 819,291 1007,406l19 -68c22,-108 -22,-55 35,-131 46,-60 150,-46 229,-47 -113,-174 -338,-338 -496,-502 -200,-209 -1398,-1274 -1448,-1384 -69,29 -109,40 8,264 148,283 434,582 455,662 -247,-21 -144,-78 -381,81 0,379 318,478 497,619 91,72 43,-4 75,100z"/>
   <path class="fil5" d="M9843 7297c117,0 238,-67 345,-118 266,-130 628,-171 771,-388 8,-11 35,-40 55,-66 -4,-5 -9,-21 -10,-17 -16,45 -196,-691 -371,-691 -132,0 -597,206 -802,288 -390,154 -510,-1 -84,897 30,62 15,95 96,95z"/>
   <path class="fil8" d="M4747 4827c32,192 142,510 218,679 169,371 169,291 603,323 182,-6 427,-46 599,-55 164,-24 365,-30 509,-65 173,-41 319,-25 471,-66 -17,-20 -44,-192 -301,-198 -142,-4 -315,101 -434,103 -115,2 -707,-163 -872,-197l-89 -9c-87,-179 -223,-570 -238,-797l-54 -83c-178,19 -328,53 -457,141l45 224z"/>
   <path class="fil9" d="M2793 9993l-107 -227c-407,-36 -2513,-641 -2673,-618 -134,302 828,532 980,545 -6,4 -16,0 -19,8l-209 63c-112,52 -99,85 -99,229l2127 0z"/>
   <path class="fil5" d="M6548 7777c-35,-99 -53,-320 1,-432l26 -40c-181,70 -1000,30 -1252,30 -462,1 -1032,-93 -1044,208 -9,236 207,229 417,227 452,-4 1507,-21 1852,7z"/>
   <path class="fil6" d="M3471 9148l2154 3c121,-10 82,25 110,-44 -319,-11 -1028,70 -1215,-137 -168,-185 43,-356 193,-397 135,-38 490,-30 642,-20l2 -62 -1896 6c-126,71 -244,130 -238,323 8,233 121,237 248,328z"/>
   <path class="fil10" d="M10197 3049l54 0c0,150 26,340 55,463 182,4 325,93 517,109l0 54c-70,-1 -455,-89 -513,-113 -113,-45 -78,-69 -89,-210 -9,-112 -24,-158 -24,-303zm-654 299c0,120 12,71 69,122 101,90 622,586 694,586 117,0 681,-320 681,-381 0,-127 -74,-145 -143,-211 -505,-475 -560,-608 -816,-448 -91,57 -485,238 -485,332z"/>
   <path class="fil5" d="M5355 8465c2,-105 41,-305 -25,-381 -33,-37 20,29 -96,-54 372,-17 364,7 365,219 0,77 -3,134 4,212l128 8c-36,-36 -59,-60 -80,-112 -20,-48 -31,-95 -31,-162 1,-125 71,-211 111,-317l-1568 22c-285,120 -281,557 123,567 353,9 715,-7 1069,-2z"/>
   <path class="fil2" d="M4288 4788c39,29 -15,31 109,31 0,200 1,399 0,599 -2,228 27,351 27,588 41,-92 31,-51 55,-77l971 9 13 215 45 0c-35,-68 -22,-92 -22,-190 109,-30 79,-7 82,-134 -434,-32 -434,48 -603,-323 -76,-169 -186,-487 -218,-679 -36,-80 -43,-123 -99,-228 -43,-80 -44,-170 -55,-279 -19,-203 -43,-419 -3,-619 -171,191 -186,794 -184,1088l-118 -1z"/>
   <path class="fil8" d="M4998 3480c160,153 109,110 209,307 117,45 125,91 306,118 38,-37 16,-1 29,-64 -113,-264 -179,-146 -109,-711 24,-189 90,-126 157,-275l124 -351c-6,-26 -56,-33 -101,-104 -69,-108 -35,-275 -345,-286 -65,68 -114,185 -172,272 -140,209 -100,91 -280,182 -29,155 3,154 90,218 71,53 101,112 176,170l-84 524z"/>
   <path class="fil11" d="M5735 9107c14,-28 9,2 21,-69 6,-37 7,-69 8,-106 1,-63 -1,-128 0,-192 -59,-40 -74,-23 -136,-47l331 6 17 445 245 20 -59 -148c-23,-61 -24,-75 -32,-158 -13,-137 34,-156 37,-317l-567 4 -6 227c-222,-94 -49,-50 -235,-6l-4 -213c-152,-10 -507,-18 -642,20 -150,41 -361,212 -193,397 187,207 896,126 1215,137z"/>
   <path class="fil9" d="M6956 6755c108,-14 86,-30 218,-30 -31,65 -24,92 -45,173l-418 1216 109 26 431 137c100,-33 18,48 89,-80 14,-26 29,-79 45,-118 24,-61 25,-46 47,-118 9,-32 7,-14 13,-61 12,-82 9,19 2,-59 67,-168 -37,-444 -78,-636 -38,-185 -68,-424 -97,-631 -126,16 -119,31 -221,84 -133,69 -64,12 -95,71l0 26z"/>
   <path class="fil7" d="M1965 5492c-348,145 -567,-318 -527,-420 40,-101 574,-222 527,420zm-645 -346c-115,-77 -127,-137 -327,-137l0 82c197,0 136,23 272,55 -53,73 -326,132 -326,354 0,287 259,463 599,463 229,0 517,-219 517,-436l0 -191c0,-162 -176,-381 -354,-381 -149,0 -326,-18 -381,191z"/>
   <path class="fil11" d="M7936 5445c-17,27 -16,3 -24,57 -4,25 -2,54 -2,79 -196,17 -596,82 -763,62 -152,41 -298,25 -471,66 -144,35 -345,41 -509,65 26,93 26,98 136,107 -1,1 -50,44 -55,48 487,-78 999,-216 1525,-132 99,-57 192,-46 296,-56 219,-21 239,-49 249,-459 13,-511 109,-1091 109,-1688 -95,0 -123,-12 -191,20 47,69 24,171 14,270 -9,87 -15,187 -22,281 -14,174 -27,339 -40,517 -14,184 -30,361 -43,546 -29,417 3,347 -218,361l9 -144z"/>
   <path class="fil6" d="M6929 460c126,54 293,247 406,305 204,106 549,17 594,133 115,-47 172,-32 110,95 -2,3 -26,44 -32,55 -13,25 -15,30 -28,55 -9,17 -20,35 -30,52 -35,63 -4,-29 -39,69 87,59 19,45 136,55 2,-93 40,-169 70,-256 58,-165 68,-72 148,-180 -47,-70 -102,-124 -172,-182 -70,-59 -123,-104 -194,-160 -428,-338 -429,-267 -1069,-354 -382,-52 54,247 100,313z"/>
   <path class="fil0" d="M3461 8497l1896 -6 -2 -26c-354,-5 -716,11 -1069,2 -404,-10 -408,-447 -123,-567 -68,-47 -138,-39 -229,-38l-729 3c-69,107 -208,197 -143,417 59,198 171,201 399,215z"/>
   <path class="fil12" d="M4590 3701c-40,200 -16,416 3,619 11,109 12,199 55,279 56,105 63,148 99,228l-45 -224c129,-88 279,-122 457,-141l54 83c-5,-144 -43,-680 -6,-758 -100,-197 -49,-154 -209,-307 -214,-12 -358,42 -408,221z"/>
   <path class="fil2" d="M5213 4545c15,227 151,618 238,797l89 9c0,-338 5,-530 142,-744 86,-135 99,-190 56,-367 -36,-150 -106,-225 -116,-355 -79,-20 -4,29 -80,-44 -13,63 9,27 -29,64 -181,-27 -189,-73 -306,-118 -37,78 1,614 6,758z"/>
   <path class="fil0" d="M7929 898c-45,-116 -390,-27 -594,-133 -113,-58 -280,-251 -406,-305 -65,80 -160,247 -163,383 70,105 266,249 395,314 146,73 378,122 585,122 60,-89 48,-52 102,-171 39,-86 73,-122 81,-210z"/>
   <path class="fil11" d="M4969 1474l354 -38c15,-164 181,-268 91,-493 -118,-298 -673,-309 -674,150 -1,218 139,232 229,381z"/>
   <path class="fil1" d="M7936 5445l-9 144c221,-14 189,56 218,-361 13,-185 29,-362 43,-546 13,-178 26,-343 40,-517 7,-94 13,-194 22,-281 10,-99 33,-201 -14,-270 -258,32 -169,85 -202,322 -20,144 -31,375 -41,503l-57 1006z"/>
   <path class="fil11" d="M8372 2532c310,25 329,71 382,299 158,-13 116,-91 201,-180 95,-98 200,-37 316,-92 -42,-181 -163,-118 -163,-245 0,-151 27,-162 27,-300 -132,11 -169,82 -300,82 -109,0 -105,-95 -272,-109 0,132 29,253 -9,317 -79,135 -168,68 -182,228z"/>
   <path class="fil8" d="M7610 8761c69,46 90,117 203,239 73,79 129,144 233,203 -46,-197 -84,-261 -82,-517 1,-238 27,-392 27,-603l-435 6c26,53 46,254 52,326 9,125 38,281 2,346z"/>
   <path class="fil13" d="M2478 1007c84,365 733,258 612,-185 -99,-359 -720,-287 -612,185z"/>
   <path class="fil8" d="M6521 8858c116,-7 398,72 599,78 -37,-37 -103,-72 -125,-129 -34,-88 14,-150 42,-204 107,-208 121,-298 214,-326l-431 -137c-115,222 -177,495 -299,718z"/>
   <path class="fil0" d="M9407 8567c177,-64 25,-70 265,-51l37 -103c-25,-80 -99,-173 -148,-263 -66,-121 -91,-130 -127,-281 -141,11 -348,155 -408,245 39,145 222,213 381,453z"/>
   <path class="fil4" d="M7474 9067c95,25 61,10 109,82 78,38 75,19 120,100l95 63c310,250 563,483 248,-109 -104,-59 -160,-124 -233,-203 -113,-122 -134,-193 -203,-239 -105,86 -119,117 -191,224l55 82z"/>
   <path class="fil4" d="M5355 8465l2 26 -2 62 4 213c186,-44 13,-88 235,6l6 -227 567 -4c33,-18 27,53 27,-46 -185,-43 -248,18 -463,-26l-128 -8c-7,-78 -4,-135 -4,-212 -1,-212 7,-236 -365,-219 116,83 63,17 96,54 66,76 27,276 25,381z"/>
   <path class="fil14" d="M1965 5492c47,-642 -487,-521 -527,-420 -40,102 179,565 527,420z"/>
   <path class="fil4" d="M6494 9138l1007 5c-10,-49 -7,-42 -27,-76 -129,-34 -173,-131 -354,-131 -201,-6 -483,-85 -599,-78 -44,74 -27,166 -27,280z"/>
   <path class="fil0" d="M9571 8794l217 354c374,-87 355,-187 145,-444 -54,-66 -112,-164 -168,-209 -34,50 -65,91 -104,146 -71,99 -78,39 -90,153z"/>
   <path class="fil11" d="M911 1388c42,157 5,14 145,127 220,178 193,-76 264,227 130,0 113,-19 218,-27 19,84 34,78 54,163 120,-3 85,-18 191,-27 43,65 33,28 54,109l82 0c-7,-301 -179,-206 -245,-191 -40,-59 -62,-80 -82,-163 -130,0 -113,18 -218,27 -17,-204 -43,-140 -190,-136 -71,-106 -67,-189 -273,-109z"/>
   <path class="fil14" d="M10333 2150c-115,-9 -79,-27 -272,-27 -25,51 -68,159 -82,218l-218 27 0 109 300 0c40,-76 59,-123 81,-218 144,0 354,121 350,-171 -1,-117 32,-43 -77,-101 -100,73 -25,45 -82,163z"/>
   <path class="fil2" d="M10578 4955c-125,-29 -74,-54 -245,-54l-31 107c-108,-1 -115,-15 -187,-53l-29 25c-4,4 -24,20 -30,25 -37,31 -38,33 -77,59 -56,-30 -65,-38 -136,-55 -156,234 -11,251 27,109 54,26 97,39 163,55l87 -105c69,35 112,69 213,78 27,-101 28,-36 54,-137 225,19 138,161 300,-81 64,15 80,25 163,27l0 -82c-64,-15 -137,-28 -190,-54 -53,79 -55,36 -82,136z"/>
   <path class="fil3" d="M10823 7433c126,-34 236,-216 305,-321 92,-138 178,-254 267,-387 -87,-58 -19,-45 -136,-54 -21,77 -68,115 -115,185 -44,66 -72,111 -119,180 -88,129 -186,207 -202,397z"/>
   <path class="fil15" d="M9407 8567l-245 11 52 123c0,1 1,8 3,12 222,-5 326,-125 242,46 -31,63 -33,36 -52,117 71,-32 53,-19 136,0 0,-145 0,-40 28,-82 12,-114 19,-54 90,-153 39,-55 70,-96 104,-146 -23,-74 -2,-42 -56,-82l-37 103c-240,-19 -88,-13 -265,51z"/>
   <path class="fil12" d="M4969 1474c9,107 41,192 81,268 388,0 273,-11 273,-306l-354 38z"/>
   <path class="fil2" d="M10224 8005c111,0 88,9 163,-27 34,63 47,70 55,163 107,0 110,-9 191,-27l0 -82 -137 0c-6,-73 -12,-74 -27,-136 -114,0 -110,-12 -190,27 -47,-87 -10,-98 -137,-109 19,80 48,126 82,191z"/>
   <path class="fil2" d="M3226 1905l191 0c15,66 28,109 54,164 129,-31 152,-4 163,-137 -125,11 -76,49 -127,-8 -91,-104 32,-161 -227,-100 -51,-97 5,-79 -109,-109 -29,64 -38,10 -7,87 2,3 54,88 62,103z"/>
   <path class="fil2" d="M8835 843c142,0 163,-29 273,-54l0 -82c-246,0 -115,-10 -191,27 -9,-105 -27,-87 -27,-218 -190,16 -75,78 -55,327z"/>
   <path class="fil16" d="M5350 598c0,-136 27,-167 27,-327l-82 0c0,112 -13,124 -31,218 -17,89 -30,100 86,109z"/>
   <path class="fil16" d="M5568 1252c54,81 203,180 299,136 -32,-119 -17,-57 -151,-122 0,0 -86,-90 -148,-14z"/>
   <path class="fil16" d="M5486 870c166,0 232,-7 300,-108 -65,-31 -90,-22 -165,-3 -106,29 -110,16 -135,111z"/>
   <path class="fil16" d="M4860 653c34,-74 5,-152 -52,-221 -46,-56 -9,-31 -84,-52 -13,62 -16,47 -10,75l30 66c44,87 41,81 116,132z"/>
   <path class="fil16" d="M4424 1606c65,-18 73,-26 126,-65 69,-50 71,-47 92,-126 -138,3 -207,62 -218,191z"/>
   <path class="fil5" d="M4370 979c140,33 233,64 299,-27 -57,-32 -283,-69 -299,27z"/>
  </g>
 </g>
</svg>
