<svg width="612" height="592" viewBox="0 0 612 592" fill="none" xmlns="http://www.w3.org/2000/svg">
<path fill-rule="evenodd" clip-rule="evenodd" d="M599.452 389.364C591.802 376.275 581.854 364.664 572.705 352.575C563.595 340.535 555.002 327.698 551.009 313.096C547.163 299.028 548.155 283.943 553.066 270.246C557.249 258.576 572.121 240.42 576.273 235.455C577.189 234.359 578.014 233.192 578.697 231.946C583.238 223.651 583.719 213.625 581.531 204.279C578.267 190.329 569.49 178.44 558.256 169.429C546.389 159.908 531.834 153.576 516.577 151.558C499.516 149.299 482.516 153.025 465.481 153.641C456.92 153.951 448.229 153.438 440.085 150.665C431.903 147.878 424.995 142.761 419.216 136.556C407.558 124.041 399.681 108.241 391.431 93.5263C383.094 78.6586 374.523 63.7556 363.177 50.8186C352.895 39.0948 340.405 29.2712 326.706 21.564C298.108 5.47282 264.784 -1.29317 231.927 0.202232C195.931 1.83966 160.661 12.7011 128.815 28.8062C101.048 42.8487 75.1382 61.7701 56.7716 86.6898C39.2579 110.452 30.0216 139.411 33.0078 168.708C34.4103 182.476 38.486 196.038 45.6386 208.038C52.8933 220.21 63.3565 229.229 74.2013 238.288C84.2667 246.696 95.8375 255.969 99.9324 268.754C105.227 285.285 94.3082 299.814 83.0827 311.124C63.0111 331.345 34.0487 346.575 30.9718 376.849C28.1039 405.065 49.3576 435.397 73.3703 449.233C103.398 466.536 140.823 465.34 174.18 460.828C212.824 455.601 251.543 444.809 290.862 449.582C326.262 453.88 358.274 471.352 386.542 491.686C400.752 501.906 414.101 513.648 429.991 521.423C446.093 529.3 477.254 535.799 495.103 535.33C526.499 534.508 547.946 528.952 574.054 511.052C599.119 493.869 612.9 460.607 611.9 430.754C611.408 416.048 606.901 402.11 599.452 389.364Z" fill="#F5F6F8"/>
<path fill-rule="evenodd" clip-rule="evenodd" d="M294.091 438.879C294.091 472.839 265.757 500.369 230.805 500.369C195.854 500.369 167.52 472.839 167.52 438.879C167.52 404.92 195.854 377.389 230.805 377.389C265.757 377.389 294.091 404.92 294.091 438.879Z" fill="#E0E4F0"/>
<path fill-rule="evenodd" clip-rule="evenodd" d="M529.86 65.1187C529.86 91.0883 508.193 112.14 481.465 112.14C454.738 112.14 433.071 91.0883 433.071 65.1187C433.071 39.1499 454.738 18.0973 481.465 18.0973C508.193 18.0973 529.86 39.1499 529.86 65.1187Z" fill="#F5F6F8"/>
<path fill-rule="evenodd" clip-rule="evenodd" d="M573.292 115.154C573.292 123.478 566.347 130.225 557.78 130.225C549.214 130.225 542.269 123.478 542.269 115.154C542.269 106.831 549.214 100.083 557.78 100.083C566.347 100.083 573.292 106.831 573.292 115.154Z" fill="#F5F6F8"/>
<path fill-rule="evenodd" clip-rule="evenodd" d="M527.379 262.247C527.379 270.571 520.434 277.318 511.867 277.318C503.3 277.318 496.356 270.571 496.356 262.247C496.356 253.923 503.3 247.176 511.867 247.176C520.434 247.176 527.379 253.923 527.379 262.247Z" fill="#F2F4F6"/>
<path fill-rule="evenodd" clip-rule="evenodd" d="M0 176.041H95.5486V97.6721H0V176.041Z" fill="#DEE4F0"/>
<path fill-rule="evenodd" clip-rule="evenodd" d="M153.87 242.353H387.158V74.7642H153.87V242.353Z" fill="#E0E4F0"/>
<path fill-rule="evenodd" clip-rule="evenodd" d="M155.732 311.077H130.294L143.013 289.375L155.732 267.673L168.451 289.375L181.17 311.077H155.732Z" fill="#E0E4F0"/>
<path opacity="0.0909598" fill-rule="evenodd" clip-rule="evenodd" d="M277.96 100.686C277.96 107.012 272.682 112.14 266.171 112.14C259.66 112.14 254.383 107.012 254.383 100.686C254.383 94.3602 259.66 89.2323 266.171 89.2323C272.682 89.2323 277.96 94.3602 277.96 100.686Z" stroke="#000F48" stroke-width="3" stroke-linecap="round"/>
<path opacity="0.0909598" fill-rule="evenodd" clip-rule="evenodd" d="M296.573 100.686C296.573 117 282.961 130.225 266.171 130.225C249.381 130.225 235.769 117 235.769 100.686C235.769 84.3722 249.381 71.1471 266.171 71.1471C282.961 71.1471 296.573 84.3722 296.573 100.686Z" stroke="#000F48" stroke-width="3" stroke-linecap="round"/>
<path opacity="0.0909598" fill-rule="evenodd" clip-rule="evenodd" d="M315.186 100.083C315.186 126.052 293.519 147.105 266.792 147.105C240.064 147.105 218.397 126.052 218.397 100.083C218.397 74.1136 240.064 53.062 266.792 53.062C293.519 53.062 315.186 74.1136 315.186 100.083Z" stroke="#000F48" stroke-width="3" stroke-linecap="round"/>
<path opacity="0.0909598" fill-rule="evenodd" clip-rule="evenodd" d="M332.559 100.083C332.559 135.375 303.114 163.984 266.792 163.984C230.47 163.984 201.024 135.375 201.024 100.083C201.024 64.7917 230.47 36.1825 266.792 36.1825C303.114 36.1825 332.559 64.7917 332.559 100.083Z" stroke="#000F48" stroke-width="3" stroke-linecap="round"/>
<path fill-rule="evenodd" clip-rule="evenodd" d="M171.243 92.8494L272.996 121.76V201.36H184.955L171.243 92.8494Z" fill="#E0E4F0"/>
<path fill-rule="evenodd" clip-rule="evenodd" d="M261.759 107.516V118.652C261.759 120.085 260.588 121.246 259.144 121.246C254.459 121.246 250.66 125.016 250.66 129.666V230.297H268.032V129.068V121.246V101.289C264.568 101.289 261.759 104.077 261.759 107.516Z" fill="#5B8DA6"/>
<path fill-rule="evenodd" clip-rule="evenodd" d="M363.997 269.41H282.977C275.179 269.41 268.858 263.293 268.858 255.748V203.772H218.397V269.41C218.397 296.378 240.989 318.239 268.858 318.239H348.605C357.106 318.239 363.997 324.907 363.997 333.133V397.886H414.457V318.239C414.457 291.272 391.865 269.41 363.997 269.41Z" fill="#0C6B9C"/>
<path fill-rule="evenodd" clip-rule="evenodd" d="M468.314 391.353C473.178 399.011 483.51 401.387 491.393 396.662L463.066 352.07L461.731 352.871L431.83 367.826L439.317 382.465C449.832 378.058 462.216 381.755 468.314 391.353Z" fill="#2C2E5E"/>
<path fill-rule="evenodd" clip-rule="evenodd" d="M393.362 386.032L401.045 400.297L433.071 384.526L425.604 370.155L393.362 386.032Z" fill="#5B8DA6"/>
<path fill-rule="evenodd" clip-rule="evenodd" d="M433.102 384.623L438.015 383.089C438.495 382.844 438.854 382.694 439.342 382.484L431.974 367.631L425.52 370.227L433.102 384.623Z" fill="#F2F4F6"/>
<path fill-rule="evenodd" clip-rule="evenodd" d="M376.393 394.471L350.943 353.276L291.609 384.258L350.952 465.932C360.307 478.807 377.776 483.438 392.591 476.97L450.443 451.716L400.072 382.722L376.393 394.471Z" fill="#027AAF"/>
<path fill-rule="evenodd" clip-rule="evenodd" d="M359.858 256.822L286.139 265.623L259.346 532.922L344.925 524.479L359.858 256.822Z" fill="#0C6B9C"/>
<path fill-rule="evenodd" clip-rule="evenodd" d="M344.358 535.173L344.968 524.482L259.274 533.162L258.105 543.773L344.358 535.173Z" fill="#815ED1"/>
<path fill-rule="evenodd" clip-rule="evenodd" d="M264.74 575.997C255.593 575.997 248.178 583.162 248.178 592H301.452V590.504L304.018 558.506L287.468 557.035C285.829 567.847 276.208 575.997 264.74 575.997Z" fill="#2C2E5E"/>
<path fill-rule="evenodd" clip-rule="evenodd" d="M307.741 517.294L290.718 516.042L288.085 550.709L304.759 552.229L307.741 517.294Z" fill="#5B8DA6"/>
<path fill-rule="evenodd" clip-rule="evenodd" d="M288.05 550.226L287.639 555.522C287.598 556.06 287.536 556.593 287.459 557.12L304.035 558.594L304.831 551.767L288.05 550.226Z" fill="#F2F4F6"/>
<path fill-rule="evenodd" clip-rule="evenodd" d="M354.605 358.005L344.995 524.552L259.277 533.183L275.154 375.053L354.605 358.005Z" fill="#009ADD"/>
<path fill-rule="evenodd" clip-rule="evenodd" d="M344.358 535.173L344.968 524.482L259.274 533.162L258.105 543.773L344.358 535.173Z" fill="#AEC0D1"/>
<path fill-rule="evenodd" clip-rule="evenodd" d="M292.851 206.339L291.609 244.442L344.968 247.176L304.985 203.772L292.851 206.339Z" fill="#5B8DA6"/>
<path fill-rule="evenodd" clip-rule="evenodd" d="M310.18 190.509C306.901 189.79 303.605 189.111 300.296 188.472C300.777 186.159 301.266 183.847 301.762 181.536C302.211 179.435 304.384 178.086 306.606 178.541C308.645 178.957 310.677 179.388 312.704 179.834C311.844 183.391 311.003 186.948 310.18 190.509Z" fill="#5B8DA6"/>
<path fill-rule="evenodd" clip-rule="evenodd" d="M299.842 217.034C295.05 212.865 290.103 208.78 285.008 204.785C282.421 202.89 282.186 199.278 284.615 197.13C296.966 188.743 310.066 180.877 323.872 173.63C315.048 187.869 307.035 202.359 299.842 217.034Z" fill="#5B8DA6"/>
<path fill-rule="evenodd" clip-rule="evenodd" d="M382.495 316.915C378.207 310.828 372.43 304.931 371.056 297.422C369.44 288.575 375.283 280.529 379.013 272.945C381.061 268.782 382.685 264.423 382.946 259.777C383.222 254.863 382.098 249.951 379.782 245.582C377.559 241.391 374.455 237.697 372.37 233.431C370.214 229.022 369.742 224.193 369.967 219.369C370.413 209.834 373.23 200.041 370.235 190.639C367.739 182.805 361.886 176.032 354.401 172.235C346.585 168.269 337.326 167.786 329.013 170.569C320.341 173.474 313.473 179.545 309.378 187.488C305.137 195.713 303.712 205.003 303.333 214.107C303.137 218.831 303.142 223.669 301.865 228.266C301.249 230.483 300.331 232.604 298.962 234.485C297.623 236.327 295.877 237.843 294.028 239.189C290.283 241.913 286.082 243.992 282.533 246.979C279.03 249.928 276.071 253.536 274.041 257.59C271.999 261.668 270.958 266.156 271.281 270.696C271.636 275.692 273.506 280.986 272.087 285.957C270.028 293.161 261.833 296.466 256.65 301.229C253.603 304.031 251.432 307.423 250.834 311.509C250.171 316.042 251.456 320.793 253.742 324.742C256.041 328.712 259.442 332.243 263.626 334.361C267.995 336.572 272.917 337.28 277.8 337.061C288.143 336.598 297.784 332.448 308.047 331.512C312.995 331.06 318.138 331.458 322.642 333.639C322.988 333.808 323.332 333.807 323.629 333.703C326.045 335.211 328.24 337.071 330.356 338.961C333.936 342.159 337.455 345.38 341.57 347.936C349.561 352.899 359.547 355.926 369.016 353.784C377.131 351.949 384.527 346.051 387.314 338.338C388.658 334.616 388.741 330.59 387.631 326.803C386.58 323.219 384.649 319.973 382.495 316.915Z" fill="#2C2E5E"/>
<path fill-rule="evenodd" clip-rule="evenodd" d="M412.668 376.478L399.856 382.822L450.407 451.761L462.852 445.112L412.668 376.478Z" fill="#AEC0D1"/>
<path fill-rule="evenodd" clip-rule="evenodd" d="M130.294 127.814H225.842V122.991H130.294V127.814Z" fill="#65C3EB"/>
<path fill-rule="evenodd" clip-rule="evenodd" d="M130.294 142.282H225.842V137.459H130.294V142.282Z" fill="#65C3EB"/>
<path fill-rule="evenodd" clip-rule="evenodd" d="M130.294 156.75H225.842V151.928H130.294V156.75Z" fill="#65C3EB"/>
<path opacity="0.230632" d="M71.9716 207.389C77.5524 207.389 77.5524 217.034 83.1341 217.034C88.7167 217.034 88.7167 207.389 94.2994 207.389C99.8839 207.389 99.8839 217.034 105.468 217.034C111.05 217.034 111.05 207.389 116.634 207.389C122.22 207.389 122.22 217.034 127.807 217.034C133.393 217.034 133.393 207.389 138.98 207.389" stroke="#92A2B0" stroke-width="3" stroke-linecap="round"/>
<path opacity="0.230632" d="M456.648 306.254C462.228 306.254 462.228 314.694 467.81 314.694C473.393 314.694 473.393 306.254 478.975 306.254C484.56 306.254 484.56 314.694 490.144 314.694C495.727 314.694 495.727 306.254 501.31 306.254C506.896 306.254 506.896 314.694 512.483 314.694C518.069 314.694 518.069 306.254 523.656 306.254" stroke="#92A2B0" stroke-width="3" stroke-linecap="round"/>
<path fill-rule="evenodd" clip-rule="evenodd" d="M417.675 231.548H513.495V226.774H417.675V231.548Z" fill="#6AB336"/>
<path fill-rule="evenodd" clip-rule="evenodd" d="M417.675 245.871H513.495V241.097H417.675V245.871Z" fill="#6AB336"/>
<path fill-rule="evenodd" clip-rule="evenodd" d="M417.675 260.194H513.495V255.419H417.675V260.194Z" fill="#6AB336"/>
<path d="M154.171 392.677C159.26 392.677 163.385 388.67 163.385 383.726C163.385 378.782 159.26 374.774 154.171 374.774C149.083 374.774 144.958 378.782 144.958 383.726C144.958 388.67 149.083 392.677 154.171 392.677Z" fill="#65C3EB"/>
<path d="M216.823 334.194C221.911 334.194 226.036 330.186 226.036 325.242C226.036 320.298 221.911 316.29 216.823 316.29C211.734 316.29 207.609 320.298 207.609 325.242C207.609 330.186 211.734 334.194 216.823 334.194Z" fill="#65C3EB"/>
<path d="M105.033 354.484C110.122 354.484 114.246 350.476 114.246 345.532C114.246 340.588 110.122 336.581 105.033 336.581C99.9446 336.581 95.8196 340.588 95.8196 345.532C95.8196 350.476 99.9446 354.484 105.033 354.484Z" fill="#65C3EB"/>
<path d="M41.1533 418.935C46.2417 418.935 50.3667 414.928 50.3667 409.984C50.3667 405.04 46.2417 401.032 41.1533 401.032C36.0649 401.032 31.9399 405.04 31.9399 409.984C31.9399 414.928 36.0649 418.935 41.1533 418.935Z" fill="#65C3EB"/>
<path d="M164.613 375.371L207.609 334.194" stroke="#AEC0D1" stroke-width="2" stroke-linecap="round"/>
<path d="M51.5952 401.032L95.8196 354.484" stroke="#AEC0D1" stroke-width="2" stroke-linecap="round"/>
<path d="M142.501 375.968L116.703 354.484" stroke="#AEC0D1" stroke-width="2" stroke-linecap="round"/>
</svg>
